<svg xmlns="http://www.w3.org/2000/svg" xmlns:xlink="http://www.w3.org/1999/xlink" width="500" zoomAndPan="magnify" viewBox="0 0 375 374.999991" height="500" preserveAspectRatio="xMidYMid meet" version="1.2"><defs><clipPath id="6fa148126f"><path d="M 53.605469 61.417969 L 321.355469 61.417969 L 321.355469 329.167969 L 53.605469 329.167969 Z M 53.605469 61.417969 "/></clipPath></defs><g id="f4f6a529db"><g clip-rule="nonzero" clip-path="url(#6fa148126f)"><path style=" stroke:none;fill-rule:nonzero;fill:#ffffff;fill-opacity:1;" d="M 187.414062 61.417969 C 113.449219 61.417969 53.605469 121.328125 53.605469 195.292969 C 53.605469 269.257812 113.449219 329.167969 187.414062 329.167969 C 261.378906 329.167969 321.355469 269.257812 321.355469 195.292969 C 321.355469 121.328125 261.378906 61.417969 187.414062 61.417969 Z M 187.480469 302.394531 C 128.308594 302.394531 80.378906 254.464844 80.378906 195.292969 C 80.378906 136.121094 128.308594 88.191406 187.480469 88.191406 C 246.652344 88.191406 294.582031 136.121094 294.582031 195.292969 C 294.582031 254.464844 246.652344 302.394531 187.480469 302.394531 Z M 187.480469 302.394531 "/></g><path style=" stroke:none;fill-rule:nonzero;fill:#ffffff;fill-opacity:1;" d="M 194.175781 128.355469 L 174.09375 128.355469 L 174.09375 208.679688 L 244.3125 250.851562 L 254.417969 234.382812 L 194.175781 198.640625 Z M 194.175781 128.355469 "/></g></svg>