<svg xmlns="http://www.w3.org/2000/svg" xmlns:xlink="http://www.w3.org/1999/xlink" width="1640" zoomAndPan="magnify" viewBox="0 0 1230 693.000001" height="924" preserveAspectRatio="xMidYMid meet" version="1.2"><defs><clipPath id="65560f4621"><path d="M 541 231.007812 L 651 231.007812 L 651 326.871094 L 541 326.871094 Z M 541 231.007812 "/></clipPath><clipPath id="7a28e6d3dd"><path d="M 579 231.007812 L 689 231.007812 L 689 326.871094 L 579 326.871094 Z M 579 231.007812 "/></clipPath><clipPath id="0e726209f6"><path d="M 653 291 L 711.933594 291 L 711.933594 316 L 653 316 Z M 653 291 "/></clipPath></defs><g id="72da335070"><g style="fill:#ffffff;fill-opacity:1;"><g transform="translate(423.627332, 406.721233)"><path style="stroke:none" d="M 45 -44.140625 C 45 -45.628906 45.515625 -46.890625 46.546875 -47.921875 C 47.578125 -48.960938 48.84375 -49.484375 50.34375 -49.484375 C 50.6875 -49.484375 51.03125 -49.453125 51.375 -49.390625 C 50.394531 -51.628906 48.84375 -53.476562 46.71875 -54.9375 C 44.601562 -56.40625 42.222656 -57.140625 39.578125 -57.140625 L 18.15625 -57.140625 C 15.632812 -57.140625 13.484375 -56.234375 11.703125 -54.421875 C 9.921875 -52.617188 9.03125 -50.484375 9.03125 -48.015625 C 9.03125 -45.953125 9.617188 -44.113281 10.796875 -42.5 C 11.972656 -40.894531 13.535156 -39.804688 15.484375 -39.234375 L 44.140625 -31.40625 C 47.523438 -30.375 50.28125 -28.453125 52.40625 -25.640625 C 54.53125 -22.828125 55.59375 -19.613281 55.59375 -16 C 55.59375 -13.019531 54.875 -10.320312 53.4375 -7.90625 C 52 -5.5 50.0625 -3.5625 47.625 -2.09375 C 45.1875 -0.632812 42.476562 0.09375 39.5 0.09375 L 4.734375 0.09375 C 4.671875 0.09375 4.640625 0.0625 4.640625 0 L 4.640625 -17.71875 C 4.640625 -17.78125 4.671875 -17.8125 4.734375 -17.8125 L 7.65625 -17.8125 C 7.71875 -17.8125 7.75 -17.78125 7.75 -17.71875 C 7.75 -15.03125 8.40625 -12.582031 9.71875 -10.375 C 11.039062 -8.164062 12.816406 -6.398438 15.046875 -5.078125 C 17.285156 -3.753906 19.726562 -3.09375 22.375 -3.09375 C 22.425781 -3.09375 22.453125 -3.078125 22.453125 -3.046875 C 22.453125 -3.023438 22.453125 -3.015625 22.453125 -3.015625 L 39.5 -3.015625 C 39.5 -3.015625 39.5 -3.023438 39.5 -3.046875 C 39.5 -3.078125 39.5 -3.09375 39.5 -3.09375 C 42.019531 -3.09375 44.164062 -3.984375 45.9375 -5.765625 C 47.71875 -7.546875 48.609375 -9.695312 48.609375 -12.21875 C 48.609375 -14.226562 48.019531 -16.035156 46.84375 -17.640625 C 45.675781 -19.242188 44.113281 -20.332031 42.15625 -20.90625 L 13.515625 -28.734375 C 10.179688 -29.765625 7.453125 -31.6875 5.328125 -34.5 C 3.148438 -37.3125 2.0625 -40.523438 2.0625 -44.140625 C 2.0625 -47.117188 2.78125 -49.828125 4.21875 -52.265625 C 5.65625 -54.710938 7.59375 -56.648438 10.03125 -58.078125 C 12.46875 -59.515625 15.175781 -60.234375 18.15625 -60.234375 L 39.578125 -60.234375 C 42.503906 -60.234375 45.1875 -59.515625 47.625 -58.078125 C 50.0625 -56.648438 52 -54.710938 53.4375 -52.265625 C 54.875 -49.828125 55.59375 -47.117188 55.59375 -44.140625 C 55.59375 -42.703125 55.070312 -41.46875 54.03125 -40.4375 C 53 -39.40625 51.769531 -38.890625 50.34375 -38.890625 C 48.84375 -38.890625 47.578125 -39.40625 46.546875 -40.4375 C 45.515625 -41.46875 45 -42.703125 45 -44.140625 Z M 45 -44.140625 "/></g></g><g style="fill:#ffffff;fill-opacity:1;"><g transform="translate(483.165621, 406.721233)"><path style="stroke:none" d="M 2.15625 0.09375 C 2.09375 0.09375 2.0625 0.0625 2.0625 0 L 2.0625 -3.015625 C 2.0625 -3.066406 2.09375 -3.09375 2.15625 -3.09375 C 3.1875 -3.09375 4.085938 -3.460938 4.859375 -4.203125 C 5.628906 -4.953125 6.015625 -5.847656 6.015625 -6.890625 L 6.015625 -53.265625 C 6.015625 -54.296875 5.628906 -55.195312 4.859375 -55.96875 C 4.085938 -56.75 3.1875 -57.140625 2.15625 -57.140625 C 2.09375 -57.140625 2.0625 -57.140625 2.0625 -57.140625 L 2.0625 -60.140625 C 2.0625 -60.203125 2.09375 -60.234375 2.15625 -60.234375 L 6.015625 -60.234375 C 6.015625 -60.234375 6.046875 -60.234375 6.109375 -60.234375 L 20.390625 -60.234375 C 20.453125 -60.234375 20.484375 -60.203125 20.484375 -60.140625 L 20.484375 -57.140625 C 20.484375 -57.140625 20.453125 -57.140625 20.390625 -57.140625 C 19.359375 -57.140625 18.46875 -56.75 17.71875 -55.96875 C 16.976562 -55.195312 16.609375 -54.296875 16.609375 -53.265625 L 16.609375 -31.671875 L 51.796875 -31.671875 C 50.992188 -31.898438 50.316406 -32.367188 49.765625 -33.078125 C 49.222656 -33.796875 48.953125 -34.585938 48.953125 -35.453125 L 48.953125 -53.265625 C 48.953125 -54.296875 48.578125 -55.195312 47.828125 -55.96875 C 47.085938 -56.75 46.175781 -57.140625 45.09375 -57.140625 C 45.03125 -57.140625 45 -57.140625 45 -57.140625 L 45 -60.140625 C 45 -60.203125 45.03125 -60.234375 45.09375 -60.234375 L 63.421875 -60.234375 C 63.421875 -60.234375 63.421875 -60.203125 63.421875 -60.140625 L 63.421875 -57.140625 C 62.328125 -57.140625 61.40625 -56.75 60.65625 -55.96875 C 59.914062 -55.195312 59.546875 -54.296875 59.546875 -53.265625 L 59.546875 -6.890625 C 59.546875 -5.847656 59.914062 -4.941406 60.65625 -4.171875 C 61.40625 -3.398438 62.328125 -3.015625 63.421875 -3.015625 L 63.421875 0 C 63.421875 0.0625 63.421875 0.09375 63.421875 0.09375 L 45.09375 0.09375 C 45.03125 0.09375 45 0.0625 45 0 L 45 -3.015625 C 45 -3.015625 45.03125 -3.015625 45.09375 -3.015625 C 46.175781 -3.015625 47.085938 -3.398438 47.828125 -4.171875 C 48.578125 -4.941406 48.953125 -5.847656 48.953125 -6.890625 L 48.953125 -28.484375 L 13.6875 -28.484375 C 14.539062 -28.253906 15.238281 -27.796875 15.78125 -27.109375 C 16.332031 -26.421875 16.609375 -25.617188 16.609375 -24.703125 L 16.609375 -6.890625 C 16.609375 -5.847656 16.976562 -4.941406 17.71875 -4.171875 C 18.46875 -3.398438 19.359375 -3.015625 20.390625 -3.015625 C 20.453125 -3.015625 20.484375 -3.015625 20.484375 -3.015625 L 20.484375 0 C 20.484375 0.0625 20.453125 0.09375 20.390625 0.09375 L 6.109375 0.09375 C 6.046875 0.09375 6.015625 0.09375 6.015625 0.09375 Z M 2.15625 0.09375 "/></g></g><g style="fill:#ffffff;fill-opacity:1;"><g transform="translate(550.533373, 406.721233)"><path style="stroke:none" d="M 2.15625 0.09375 C 2.09375 0.09375 2.0625 0.0625 2.0625 0 L 2.0625 -3.015625 C 2.0625 -3.015625 2.09375 -3.015625 2.15625 -3.015625 C 3.1875 -3.015625 4.085938 -3.398438 4.859375 -4.171875 C 5.628906 -4.941406 6.015625 -5.847656 6.015625 -6.890625 L 6.015625 -53.265625 C 6.015625 -54.296875 5.628906 -55.195312 4.859375 -55.96875 C 4.085938 -56.75 3.1875 -57.140625 2.15625 -57.140625 C 2.09375 -57.140625 2.0625 -57.140625 2.0625 -57.140625 L 2.0625 -60.140625 C 2.0625 -60.203125 2.09375 -60.234375 2.15625 -60.234375 L 6.015625 -60.234375 C 6.015625 -60.234375 6.046875 -60.234375 6.109375 -60.234375 L 59.453125 -60.234375 C 59.515625 -60.234375 59.546875 -60.203125 59.546875 -60.140625 L 59.546875 -42.421875 C 59.546875 -42.359375 59.515625 -42.328125 59.453125 -42.328125 L 56.453125 -42.328125 C 56.390625 -42.328125 56.359375 -42.359375 56.359375 -42.421875 C 56.359375 -45.117188 55.695312 -47.582031 54.375 -49.8125 C 53.0625 -52.050781 51.300781 -53.832031 49.09375 -55.15625 C 46.882812 -56.476562 44.429688 -57.140625 41.734375 -57.140625 L 13.6875 -57.140625 C 14.539062 -56.847656 15.238281 -56.359375 15.78125 -55.671875 C 16.332031 -54.984375 16.609375 -54.179688 16.609375 -53.265625 L 16.609375 -31.671875 L 29.421875 -31.671875 C 30.460938 -31.671875 31.367188 -32.039062 32.140625 -32.78125 C 32.910156 -33.53125 33.296875 -34.421875 33.296875 -35.453125 C 33.296875 -35.503906 33.328125 -35.53125 33.390625 -35.53125 L 36.3125 -35.53125 C 36.363281 -35.53125 36.390625 -35.503906 36.390625 -35.453125 L 36.390625 -24.703125 C 36.390625 -24.640625 36.363281 -24.609375 36.3125 -24.609375 L 33.390625 -24.609375 C 33.328125 -24.609375 33.296875 -24.640625 33.296875 -24.703125 C 33.296875 -25.734375 32.910156 -26.617188 32.140625 -27.359375 C 31.367188 -28.109375 30.460938 -28.484375 29.421875 -28.484375 L 16.609375 -28.484375 L 16.609375 -3.015625 L 41.734375 -3.015625 C 41.734375 -3.066406 41.734375 -3.09375 41.734375 -3.09375 C 44.429688 -3.09375 46.882812 -3.753906 49.09375 -5.078125 C 51.300781 -6.398438 53.0625 -8.164062 54.375 -10.375 C 55.695312 -12.582031 56.359375 -15.03125 56.359375 -17.71875 C 56.359375 -17.78125 56.390625 -17.8125 56.453125 -17.8125 L 59.453125 -17.8125 C 59.515625 -17.8125 59.546875 -17.78125 59.546875 -17.71875 L 59.546875 0 C 59.546875 0.0625 59.515625 0.09375 59.453125 0.09375 Z M 2.15625 0.09375 "/></g></g><g style="fill:#ffffff;fill-opacity:1;"><g transform="translate(613.943377, 406.721233)"><path style="stroke:none" d="M 2.15625 0.09375 C 2.09375 0.09375 2.0625 0.0625 2.0625 0 L 2.0625 -3.015625 C 2.0625 -3.066406 2.09375 -3.09375 2.15625 -3.09375 C 3.1875 -3.09375 4.085938 -3.460938 4.859375 -4.203125 C 5.628906 -4.953125 6.015625 -5.847656 6.015625 -6.890625 L 6.015625 -53.265625 C 6.015625 -54.296875 5.628906 -55.195312 4.859375 -55.96875 C 4.085938 -56.75 3.1875 -57.140625 2.15625 -57.140625 C 2.09375 -57.140625 2.0625 -57.140625 2.0625 -57.140625 L 2.0625 -60.140625 C 2.0625 -60.203125 2.09375 -60.234375 2.15625 -60.234375 L 6.015625 -60.234375 C 6.015625 -60.234375 6.046875 -60.234375 6.109375 -60.234375 L 20.390625 -60.234375 C 20.453125 -60.234375 20.484375 -60.203125 20.484375 -60.140625 L 20.484375 -57.140625 C 20.484375 -57.140625 20.453125 -57.140625 20.390625 -57.140625 C 19.359375 -57.140625 18.46875 -56.75 17.71875 -55.96875 C 16.976562 -55.195312 16.609375 -54.296875 16.609375 -53.265625 L 16.609375 -6.890625 C 16.609375 -5.960938 16.332031 -5.15625 15.78125 -4.46875 C 15.238281 -3.78125 14.539062 -3.296875 13.6875 -3.015625 L 41.734375 -3.015625 C 44.429688 -3.015625 46.882812 -3.671875 49.09375 -4.984375 C 51.300781 -6.304688 53.0625 -8.085938 54.375 -10.328125 C 55.695312 -12.566406 56.359375 -15.03125 56.359375 -17.71875 C 56.359375 -17.78125 56.390625 -17.8125 56.453125 -17.8125 L 59.453125 -17.8125 C 59.515625 -17.8125 59.546875 -17.78125 59.546875 -17.71875 L 59.546875 0 C 59.546875 0.0625 59.515625 0.09375 59.453125 0.09375 Z M 2.15625 0.09375 "/></g></g><g style="fill:#ffffff;fill-opacity:1;"><g transform="translate(677.353381, 406.721233)"><path style="stroke:none" d="M 2.15625 0.09375 C 2.09375 0.09375 2.0625 0.0625 2.0625 0 L 2.0625 -3.015625 C 2.0625 -3.015625 2.09375 -3.015625 2.15625 -3.015625 C 3.1875 -3.015625 4.085938 -3.398438 4.859375 -4.171875 C 5.628906 -4.941406 6.015625 -5.847656 6.015625 -6.890625 L 6.015625 -28.5625 C 6.015625 -28.5625 6.015625 -28.816406 6.015625 -29.328125 C 6.015625 -29.847656 6.015625 -30.351562 6.015625 -30.84375 C 6.015625 -31.332031 6.015625 -31.578125 6.015625 -31.578125 C 6.015625 -31.578125 6.015625 -32.09375 6.015625 -33.125 C 6.015625 -34.15625 6.015625 -35.503906 6.015625 -37.171875 C 6.015625 -38.835938 6.015625 -40.585938 6.015625 -42.421875 C 6.015625 -44.253906 6.015625 -46.003906 6.015625 -47.671875 C 6.015625 -49.335938 6.015625 -50.6875 6.015625 -51.71875 C 6.015625 -52.75 6.015625 -53.265625 6.015625 -53.265625 C 6.015625 -54.296875 5.628906 -55.195312 4.859375 -55.96875 C 4.085938 -56.75 3.1875 -57.140625 2.15625 -57.140625 C 2.09375 -57.140625 2.0625 -57.140625 2.0625 -57.140625 L 2.0625 -60.140625 C 2.0625 -60.203125 2.09375 -60.234375 2.15625 -60.234375 L 6.015625 -60.234375 C 6.015625 -60.234375 6.046875 -60.234375 6.109375 -60.234375 L 43.71875 -60.234375 C 46.582031 -60.234375 49.21875 -59.515625 51.625 -58.078125 C 54.03125 -56.648438 55.953125 -54.726562 57.390625 -52.3125 C 58.828125 -49.90625 59.546875 -47.269531 59.546875 -44.40625 C 59.546875 -41.25 58.710938 -38.394531 57.046875 -35.84375 C 55.378906 -33.289062 53.203125 -31.378906 50.515625 -30.109375 C 53.203125 -28.796875 55.378906 -26.863281 57.046875 -24.3125 C 58.710938 -21.757812 59.546875 -18.90625 59.546875 -15.75 C 59.546875 -12.875 58.828125 -10.234375 57.390625 -7.828125 C 55.953125 -5.421875 54.03125 -3.5 51.625 -2.0625 C 49.21875 -0.625 46.582031 0.09375 43.71875 0.09375 L 6.109375 0.09375 C 6.046875 0.09375 6.015625 0.09375 6.015625 0.09375 Z M 43.71875 -3.015625 C 44.632812 -3.015625 45.492188 -3.585938 46.296875 -4.734375 C 47.097656 -5.878906 47.738281 -7.425781 48.21875 -9.375 C 48.707031 -11.332031 48.953125 -13.457031 48.953125 -15.75 C 48.953125 -18.101562 48.707031 -20.238281 48.21875 -22.15625 C 47.738281 -24.082031 47.109375 -25.617188 46.328125 -26.765625 C 45.554688 -27.910156 44.6875 -28.484375 43.71875 -28.484375 C 43.71875 -28.484375 43.054688 -28.484375 41.734375 -28.484375 C 40.410156 -28.484375 38.71875 -28.484375 36.65625 -28.484375 C 34.59375 -28.484375 32.398438 -28.484375 30.078125 -28.484375 C 27.753906 -28.484375 25.570312 -28.484375 23.53125 -28.484375 C 21.5 -28.484375 19.820312 -28.484375 18.5 -28.484375 C 17.175781 -28.484375 16.515625 -28.484375 16.515625 -28.484375 L 13.6875 -28.484375 C 14.539062 -28.253906 15.238281 -27.796875 15.78125 -27.109375 C 16.332031 -26.421875 16.609375 -25.617188 16.609375 -24.703125 L 16.609375 -3.015625 Z M 43.71875 -31.671875 C 44.6875 -31.671875 45.554688 -32.242188 46.328125 -33.390625 C 47.109375 -34.535156 47.738281 -36.066406 48.21875 -37.984375 C 48.707031 -39.910156 48.953125 -42.050781 48.953125 -44.40625 C 48.953125 -46.695312 48.707031 -48.816406 48.21875 -50.765625 C 47.738281 -52.710938 47.097656 -54.257812 46.296875 -55.40625 C 45.492188 -56.5625 44.632812 -57.140625 43.71875 -57.140625 L 16.609375 -57.140625 L 16.609375 -31.671875 Z M 43.71875 -31.671875 "/></g></g><g style="fill:#ffffff;fill-opacity:1;"><g transform="translate(740.763385, 406.721233)"><path style="stroke:none" d="M 63.421875 -60.234375 C 63.421875 -60.234375 63.421875 -60.203125 63.421875 -60.140625 L 63.421875 -57.140625 L 62.125 -57.140625 C 61.09375 -57.140625 60.046875 -56.765625 58.984375 -56.015625 C 57.921875 -55.265625 57.160156 -54.347656 56.703125 -53.265625 L 38.03125 -8.609375 L 38.03125 -6.796875 C 38.09375 -5.765625 38.492188 -4.875 39.234375 -4.125 C 39.984375 -3.382812 40.875 -3.015625 41.90625 -3.015625 C 41.957031 -3.015625 41.984375 -3.015625 41.984375 -3.015625 L 41.984375 0 C 41.984375 0.0625 41.957031 0.09375 41.90625 0.09375 L 23.65625 0.09375 C 23.601562 0.09375 23.578125 0.0625 23.578125 0 L 23.578125 -3.015625 C 23.578125 -3.015625 23.601562 -3.015625 23.65625 -3.015625 C 24.695312 -3.015625 25.585938 -3.398438 26.328125 -4.171875 C 27.078125 -4.941406 27.453125 -5.847656 27.453125 -6.890625 L 27.453125 -8.859375 L 8.859375 -53.265625 C 8.398438 -54.296875 7.640625 -55.195312 6.578125 -55.96875 C 5.515625 -56.75 4.441406 -57.140625 3.359375 -57.140625 L 2.15625 -57.140625 C 2.09375 -57.140625 2.0625 -57.164062 2.0625 -57.21875 L 2.0625 -60.140625 C 2.0625 -60.140625 2.0625 -60.171875 2.0625 -60.234375 C 2.125 -60.234375 2.15625 -60.234375 2.15625 -60.234375 L 6.015625 -60.234375 C 6.078125 -60.234375 6.09375 -60.234375 6.0625 -60.234375 C 6.03125 -60.234375 6.015625 -60.234375 6.015625 -60.234375 C 6.078125 -60.234375 6.109375 -60.234375 6.109375 -60.234375 L 22.546875 -60.234375 C 22.546875 -60.234375 22.570312 -60.234375 22.625 -60.234375 C 22.625 -60.171875 22.625 -60.140625 22.625 -60.140625 L 22.625 -57.140625 C 22.570312 -57.140625 22.546875 -57.140625 22.546875 -57.140625 C 21.566406 -57.140625 20.847656 -56.796875 20.390625 -56.109375 C 19.929688 -55.359375 19.90625 -54.4375 20.3125 -53.34375 L 20.3125 -53.265625 L 35.109375 -17.984375 L 36.828125 -13.859375 L 37.953125 -16.4375 L 53.265625 -53.265625 C 53.722656 -54.410156 53.722656 -55.359375 53.265625 -56.109375 C 52.804688 -56.796875 52.085938 -57.140625 51.109375 -57.140625 C 51.054688 -57.140625 51.03125 -57.140625 51.03125 -57.140625 L 51.03125 -60.140625 C 51.03125 -60.203125 51.054688 -60.234375 51.109375 -60.234375 Z M 63.421875 -60.234375 "/></g></g><path style="fill:none;stroke-width:2;stroke-linecap:round;stroke-linejoin:miter;stroke:#b1934d;stroke-opacity:1;stroke-miterlimit:4;" d="M 1.000775 0.998126 L 461.079941 0.998126 " transform="matrix(0.748793,0,0,0.748793,441.969377,428.557298)"/><g style="fill:#ffffff;fill-opacity:1;"><g transform="translate(527.132954, 455.169387)"><path style="stroke:none" d="M 1.78125 0 L 1.78125 -12.234375 L 6.515625 -12.234375 C 7.691406 -12.234375 8.632812 -11.9375 9.34375 -11.34375 C 10.050781 -10.757812 10.40625 -9.972656 10.40625 -8.984375 C 10.40625 -8.390625 10.265625 -7.863281 9.984375 -7.40625 C 9.703125 -6.957031 9.3125 -6.601562 8.8125 -6.34375 C 9.4375 -6.09375 9.914062 -5.710938 10.25 -5.203125 C 10.582031 -4.703125 10.75 -4.109375 10.75 -3.421875 C 10.75 -2.359375 10.390625 -1.519531 9.671875 -0.90625 C 8.960938 -0.300781 7.988281 0 6.75 0 Z M 3.328125 -1.4375 L 6.71875 -1.4375 C 7.507812 -1.4375 8.113281 -1.613281 8.53125 -1.96875 C 8.957031 -2.332031 9.171875 -2.84375 9.171875 -3.5 C 9.171875 -4.144531 8.957031 -4.644531 8.53125 -5 C 8.101562 -5.363281 7.492188 -5.546875 6.703125 -5.546875 L 3.328125 -5.546875 Z M 3.328125 -6.9375 L 6.484375 -6.9375 C 7.242188 -6.9375 7.820312 -7.101562 8.21875 -7.4375 C 8.625 -7.78125 8.828125 -8.253906 8.828125 -8.859375 C 8.828125 -9.484375 8.625 -9.960938 8.21875 -10.296875 C 7.8125 -10.640625 7.234375 -10.8125 6.484375 -10.8125 L 3.328125 -10.8125 Z M 3.328125 -6.9375 "/></g></g><g style="fill:#ffffff;fill-opacity:1;"><g transform="translate(545.032886, 455.169387)"><path style="stroke:none" d="M 0.296875 0 L 5.328125 -12.234375 L 6.765625 -12.234375 L 11.796875 0 L 10.171875 0 L 9.015625 -2.78125 L 3.0625 -2.78125 L 1.9375 0 Z M 3.65625 -4.21875 L 8.4375 -4.21875 L 6.046875 -10.09375 Z M 3.65625 -4.21875 "/></g></g><g style="fill:#ffffff;fill-opacity:1;"><g transform="translate(563.299828, 455.169387)"><path style="stroke:none" d="M 1.78125 0 L 1.78125 -12.234375 L 6.453125 -12.234375 C 7.304688 -12.234375 8.046875 -12.070312 8.671875 -11.75 C 9.296875 -11.4375 9.785156 -10.988281 10.140625 -10.40625 C 10.492188 -9.820312 10.671875 -9.125 10.671875 -8.3125 C 10.671875 -7.3125 10.410156 -6.488281 9.890625 -5.84375 C 9.378906 -5.195312 8.675781 -4.765625 7.78125 -4.546875 L 10.859375 0 L 9 0 L 6.015625 -4.390625 L 3.328125 -4.390625 L 3.328125 0 Z M 3.328125 -5.859375 L 6.28125 -5.859375 C 7.175781 -5.859375 7.867188 -6.070312 8.359375 -6.5 C 8.847656 -6.925781 9.09375 -7.53125 9.09375 -8.3125 C 9.09375 -9.082031 8.847656 -9.679688 8.359375 -10.109375 C 7.867188 -10.546875 7.175781 -10.765625 6.28125 -10.765625 L 3.328125 -10.765625 Z M 3.328125 -5.859375 "/></g></g><g style="fill:#ffffff;fill-opacity:1;"><g transform="translate(581.374526, 455.169387)"><path style="stroke:none" d="M 1.78125 0 L 1.78125 -12.234375 L 6.515625 -12.234375 C 7.691406 -12.234375 8.632812 -11.9375 9.34375 -11.34375 C 10.050781 -10.757812 10.40625 -9.972656 10.40625 -8.984375 C 10.40625 -8.390625 10.265625 -7.863281 9.984375 -7.40625 C 9.703125 -6.957031 9.3125 -6.601562 8.8125 -6.34375 C 9.4375 -6.09375 9.914062 -5.710938 10.25 -5.203125 C 10.582031 -4.703125 10.75 -4.109375 10.75 -3.421875 C 10.75 -2.359375 10.390625 -1.519531 9.671875 -0.90625 C 8.960938 -0.300781 7.988281 0 6.75 0 Z M 3.328125 -1.4375 L 6.71875 -1.4375 C 7.507812 -1.4375 8.113281 -1.613281 8.53125 -1.96875 C 8.957031 -2.332031 9.171875 -2.84375 9.171875 -3.5 C 9.171875 -4.144531 8.957031 -4.644531 8.53125 -5 C 8.101562 -5.363281 7.492188 -5.546875 6.703125 -5.546875 L 3.328125 -5.546875 Z M 3.328125 -6.9375 L 6.484375 -6.9375 C 7.242188 -6.9375 7.820312 -7.101562 8.21875 -7.4375 C 8.625 -7.78125 8.828125 -8.253906 8.828125 -8.859375 C 8.828125 -9.484375 8.625 -9.960938 8.21875 -10.296875 C 7.8125 -10.640625 7.234375 -10.8125 6.484375 -10.8125 L 3.328125 -10.8125 Z M 3.328125 -6.9375 "/></g></g><g style="fill:#ffffff;fill-opacity:1;"><g transform="translate(599.274458, 455.169387)"><path style="stroke:none" d="M 1.78125 0 L 1.78125 -12.234375 L 9.21875 -12.234375 L 9.21875 -10.8125 L 3.328125 -10.8125 L 3.328125 -6.9375 L 8.78125 -6.9375 L 8.78125 -5.53125 L 3.328125 -5.53125 L 3.328125 -1.4375 L 9.40625 -1.4375 L 9.40625 0 Z M 1.78125 0 "/></g></g><g style="fill:#ffffff;fill-opacity:1;"><g transform="translate(615.985976, 455.169387)"><path style="stroke:none" d="M 1.78125 0 L 1.78125 -12.234375 L 6.453125 -12.234375 C 7.304688 -12.234375 8.046875 -12.070312 8.671875 -11.75 C 9.296875 -11.4375 9.785156 -10.988281 10.140625 -10.40625 C 10.492188 -9.820312 10.671875 -9.125 10.671875 -8.3125 C 10.671875 -7.3125 10.410156 -6.488281 9.890625 -5.84375 C 9.378906 -5.195312 8.675781 -4.765625 7.78125 -4.546875 L 10.859375 0 L 9 0 L 6.015625 -4.390625 L 3.328125 -4.390625 L 3.328125 0 Z M 3.328125 -5.859375 L 6.28125 -5.859375 C 7.175781 -5.859375 7.867188 -6.070312 8.359375 -6.5 C 8.847656 -6.925781 9.09375 -7.53125 9.09375 -8.3125 C 9.09375 -9.082031 8.847656 -9.679688 8.359375 -10.109375 C 7.867188 -10.546875 7.175781 -10.765625 6.28125 -10.765625 L 3.328125 -10.765625 Z M 3.328125 -5.859375 "/></g></g><g style="fill:#ffffff;fill-opacity:1;"><g transform="translate(634.060674, 455.169387)"><path style="stroke:none" d="M 5.859375 0.234375 C 4.878906 0.234375 4.03125 0.0664062 3.3125 -0.265625 C 2.59375 -0.597656 2.035156 -1.0625 1.640625 -1.65625 C 1.253906 -2.257812 1.054688 -2.960938 1.046875 -3.765625 L 2.59375 -3.765625 C 2.613281 -2.984375 2.921875 -2.363281 3.515625 -1.90625 C 4.117188 -1.457031 4.898438 -1.234375 5.859375 -1.234375 C 6.722656 -1.234375 7.40625 -1.398438 7.90625 -1.734375 C 8.414062 -2.078125 8.671875 -2.554688 8.671875 -3.171875 C 8.671875 -3.734375 8.425781 -4.1875 7.9375 -4.53125 C 7.445312 -4.875 6.648438 -5.175781 5.546875 -5.4375 C 4.035156 -5.800781 2.929688 -6.265625 2.234375 -6.828125 C 1.535156 -7.390625 1.1875 -8.144531 1.1875 -9.09375 C 1.1875 -10.125 1.578125 -10.941406 2.359375 -11.546875 C 3.148438 -12.160156 4.21875 -12.46875 5.5625 -12.46875 C 6.9375 -12.46875 8.019531 -12.125 8.8125 -11.4375 C 9.613281 -10.75 10.019531 -9.8125 10.03125 -8.625 L 8.515625 -8.625 C 8.503906 -9.351562 8.234375 -9.929688 7.703125 -10.359375 C 7.171875 -10.785156 6.457031 -11 5.5625 -11 C 4.6875 -11 4 -10.828125 3.5 -10.484375 C 3.007812 -10.140625 2.765625 -9.675781 2.765625 -9.09375 C 2.765625 -8.59375 2.992188 -8.171875 3.453125 -7.828125 C 3.910156 -7.484375 4.734375 -7.164062 5.921875 -6.875 C 7.484375 -6.488281 8.597656 -6.003906 9.265625 -5.421875 C 9.929688 -4.847656 10.265625 -4.113281 10.265625 -3.21875 C 10.265625 -2.15625 9.863281 -1.3125 9.0625 -0.6875 C 8.269531 -0.0703125 7.203125 0.234375 5.859375 0.234375 Z M 5.859375 0.234375 "/></g></g><g style="fill:#ffffff;fill-opacity:1;"><g transform="translate(651.541173, 455.169387)"><path style="stroke:none" d="M 9.8125 0 L 9.8125 -5.5 L 3.328125 -5.5 L 3.328125 0 L 1.78125 0 L 1.78125 -12.234375 L 3.328125 -12.234375 L 3.328125 -6.96875 L 9.8125 -6.96875 L 9.8125 -12.234375 L 11.34375 -12.234375 L 11.34375 0 Z M 9.8125 0 "/></g></g><g style="fill:#ffffff;fill-opacity:1;"><g transform="translate(670.839243, 455.169387)"><path style="stroke:none" d="M 7.34375 0.234375 C 6.101562 0.234375 5.003906 -0.0351562 4.046875 -0.578125 C 3.097656 -1.128906 2.351562 -1.878906 1.8125 -2.828125 C 1.28125 -3.785156 1.015625 -4.882812 1.015625 -6.125 C 1.015625 -7.363281 1.28125 -8.457031 1.8125 -9.40625 C 2.351562 -10.363281 3.097656 -11.113281 4.046875 -11.65625 C 5.003906 -12.195312 6.101562 -12.46875 7.34375 -12.46875 C 8.59375 -12.46875 9.691406 -12.195312 10.640625 -11.65625 C 11.585938 -11.113281 12.332031 -10.363281 12.875 -9.40625 C 13.414062 -8.457031 13.6875 -7.363281 13.6875 -6.125 C 13.6875 -4.882812 13.414062 -3.785156 12.875 -2.828125 C 12.332031 -1.878906 11.585938 -1.128906 10.640625 -0.578125 C 9.691406 -0.0351562 8.59375 0.234375 7.34375 0.234375 Z M 2.59375 -6.125 C 2.59375 -5.175781 2.789062 -4.335938 3.1875 -3.609375 C 3.59375 -2.890625 4.148438 -2.328125 4.859375 -1.921875 C 5.578125 -1.515625 6.40625 -1.3125 7.34375 -1.3125 C 8.289062 -1.3125 9.117188 -1.515625 9.828125 -1.921875 C 10.535156 -2.328125 11.085938 -2.890625 11.484375 -3.609375 C 11.890625 -4.335938 12.09375 -5.175781 12.09375 -6.125 C 12.09375 -7.070312 11.890625 -7.90625 11.484375 -8.625 C 11.085938 -9.34375 10.535156 -9.90625 9.828125 -10.3125 C 9.117188 -10.71875 8.289062 -10.921875 7.34375 -10.921875 C 6.40625 -10.921875 5.578125 -10.71875 4.859375 -10.3125 C 4.148438 -9.90625 3.59375 -9.34375 3.1875 -8.625 C 2.789062 -7.90625 2.59375 -7.070312 2.59375 -6.125 Z M 2.59375 -6.125 "/></g></g><g style="fill:#ffffff;fill-opacity:1;"><g transform="translate(691.692753, 455.169387)"><path style="stroke:none" d="M 1.78125 0 L 1.78125 -12.234375 L 5.921875 -12.234375 C 6.847656 -12.234375 7.648438 -12.0625 8.328125 -11.71875 C 9.015625 -11.382812 9.539062 -10.910156 9.90625 -10.296875 C 10.28125 -9.691406 10.46875 -8.96875 10.46875 -8.125 C 10.46875 -7.289062 10.28125 -6.566406 9.90625 -5.953125 C 9.539062 -5.335938 9.015625 -4.859375 8.328125 -4.515625 C 7.648438 -4.179688 6.847656 -4.015625 5.921875 -4.015625 L 3.328125 -4.015625 L 3.328125 0 Z M 3.328125 -5.453125 L 5.890625 -5.453125 C 7.898438 -5.453125 8.90625 -6.335938 8.90625 -8.109375 C 8.90625 -9.878906 7.898438 -10.765625 5.890625 -10.765625 L 3.328125 -10.765625 Z M 3.328125 -5.453125 "/></g></g><g clip-rule="nonzero" clip-path="url(#65560f4621)"><path style=" stroke:none;fill-rule:nonzero;fill:#b1934d;fill-opacity:1;" d="M 605.648438 280.425781 L 558.222656 232.355469 C 556.894531 231.023438 554.703125 231.136719 553.523438 232.609375 L 541.511719 247.539062 C 541.394531 247.671875 541.394531 247.816406 541.484375 247.902344 C 541.570312 247.984375 541.714844 247.992188 541.847656 247.875 L 556.34375 234.144531 L 557.378906 235.175781 L 543.734375 249.773438 C 543.613281 249.90625 543.613281 250.054688 543.707031 250.140625 C 543.789062 250.222656 543.9375 250.230469 544.070312 250.109375 L 558.613281 236.410156 L 559.613281 237.398438 L 545.960938 252.011719 C 545.84375 252.144531 545.84375 252.292969 545.933594 252.375 C 546.015625 252.460938 546.164062 252.46875 546.296875 252.347656 L 560.855469 238.632812 L 561.851562 239.621094 L 548.195312 254.242188 C 548.078125 254.375 548.078125 254.523438 548.167969 254.605469 C 548.25 254.691406 548.398438 254.695312 548.53125 254.578125 L 563.097656 240.855469 L 564.09375 241.84375 L 550.421875 256.476562 C 550.304688 256.613281 550.304688 256.757812 550.394531 256.84375 C 550.480469 256.925781 550.625 256.933594 550.757812 256.816406 L 565.335938 243.078125 L 566.328125 244.066406 L 552.648438 258.707031 C 552.53125 258.839844 552.53125 258.988281 552.621094 259.074219 C 552.707031 259.15625 552.851562 259.164062 552.984375 259.042969 L 567.570312 245.300781 L 568.5625 246.289062 L 554.871094 260.945312 C 554.753906 261.078125 554.753906 261.226562 554.84375 261.308594 C 554.925781 261.394531 555.074219 261.402344 555.207031 261.28125 L 569.804688 247.53125 L 570.796875 248.519531 L 557.097656 263.183594 C 556.980469 263.316406 556.980469 263.460938 557.070312 263.546875 C 557.152344 263.632812 557.300781 263.636719 557.433594 263.519531 L 572.042969 249.753906 L 573.03125 250.742188 L 559.324219 265.417969 C 559.207031 265.550781 559.207031 265.699219 559.296875 265.785156 C 559.382812 265.867188 559.527344 265.875 559.660156 265.757812 L 574.28125 251.984375 L 575.273438 252.972656 L 561.554688 267.65625 C 561.433594 267.789062 561.433594 267.9375 561.523438 268.019531 C 561.609375 268.105469 561.753906 268.113281 561.886719 267.992188 L 576.515625 254.207031 L 577.507812 255.195312 L 563.78125 269.894531 C 563.660156 270.027344 563.660156 270.171875 563.753906 270.257812 C 563.835938 270.34375 563.984375 270.347656 564.117188 270.230469 L 578.75 256.4375 L 579.742188 257.425781 L 566 272.128906 C 565.882812 272.261719 565.882812 272.410156 565.972656 272.496094 C 566.058594 272.578125 566.203125 272.585938 566.335938 272.46875 L 580.984375 258.667969 L 581.976562 259.65625 L 568.226562 274.375 C 568.109375 274.507812 568.109375 274.65625 568.199219 274.738281 C 568.285156 274.824219 568.429688 274.832031 568.5625 274.710938 L 583.21875 260.894531 L 584.210938 261.878906 L 570.457031 276.605469 C 570.335938 276.738281 570.335938 276.886719 570.429688 276.96875 C 570.511719 277.054688 570.660156 277.058594 570.792969 276.941406 L 585.460938 263.117188 L 586.453125 264.101562 L 572.683594 278.839844 C 572.566406 278.972656 572.566406 279.121094 572.65625 279.207031 C 572.738281 279.289062 572.886719 279.296875 573.019531 279.179688 L 587.695312 265.347656 L 588.679688 266.332031 L 574.902344 281.078125 C 574.785156 281.210938 574.785156 281.359375 574.875 281.441406 C 574.960938 281.527344 575.105469 281.535156 575.238281 281.414062 L 589.929688 267.570312 L 590.914062 268.554688 L 577.125 283.316406 C 577.003906 283.449219 577.003906 283.597656 577.097656 283.679688 C 577.179688 283.765625 577.328125 283.769531 577.460938 283.652344 L 592.15625 269.800781 L 593.144531 270.785156 L 579.34375 285.550781 C 579.226562 285.6875 579.226562 285.832031 579.316406 285.917969 C 579.402344 286 579.546875 286.007812 579.679688 285.890625 L 594.390625 272.023438 L 595.378906 273.007812 L 581.574219 287.789062 C 581.453125 287.921875 581.453125 288.070312 581.542969 288.152344 C 581.628906 288.238281 581.773438 288.246094 581.90625 288.125 L 596.625 274.253906 L 597.613281 275.238281 L 583.792969 290.027344 C 583.675781 290.160156 583.675781 290.308594 583.765625 290.390625 C 583.847656 290.476562 583.996094 290.480469 584.128906 290.363281 L 598.863281 276.476562 L 599.847656 277.460938 L 586.019531 292.261719 C 585.902344 292.398438 585.902344 292.542969 585.992188 292.628906 C 586.074219 292.710938 586.222656 292.71875 586.355469 292.601562 L 601.097656 278.707031 L 602.082031 279.691406 L 588.242188 294.5 C 588.121094 294.632812 588.121094 294.78125 588.210938 294.863281 C 588.296875 294.949219 588.441406 294.957031 588.574219 294.835938 L 603.332031 280.9375 L 604.351562 281.953125 L 590.46875 296.738281 C 590.347656 296.871094 590.347656 297.019531 590.441406 297.101562 C 590.523438 297.1875 590.671875 297.191406 590.804688 297.074219 L 605.667969 285.011719 C 605.84375 284.871094 606.289062 284.542969 606.648438 284.242188 L 649.023438 326.414062 C 649.527344 326.917969 649.925781 326.878906 650.199219 326.605469 C 650.46875 326.332031 650.519531 325.929688 650.007812 325.425781 L 606.1875 281.007812 C 606.027344 280.847656 605.863281 280.6875 605.703125 280.515625 Z M 605.648438 280.425781 "/></g><g clip-rule="nonzero" clip-path="url(#7a28e6d3dd)"><path style=" stroke:none;fill-rule:nonzero;fill:#b1934d;fill-opacity:1;" d="M 623.808594 280.425781 L 671.238281 232.355469 C 672.5625 231.023438 674.753906 231.136719 675.9375 232.609375 L 687.945312 247.539062 C 688.066406 247.671875 688.066406 247.816406 687.972656 247.902344 C 687.890625 247.984375 687.742188 247.992188 687.609375 247.875 L 673.113281 234.144531 L 672.082031 235.175781 L 685.726562 249.773438 C 685.84375 249.90625 685.84375 250.054688 685.753906 250.140625 C 685.667969 250.222656 685.523438 250.230469 685.390625 250.109375 L 670.84375 236.410156 L 669.847656 237.398438 L 683.5 252.011719 C 683.617188 252.144531 683.617188 252.292969 683.527344 252.375 C 683.441406 252.460938 683.296875 252.46875 683.164062 252.347656 L 668.605469 238.632812 L 667.605469 239.621094 L 681.265625 254.242188 C 681.382812 254.375 681.382812 254.523438 681.292969 254.605469 C 681.207031 254.691406 681.0625 254.695312 680.929688 254.578125 L 666.363281 240.855469 L 665.363281 241.84375 L 679.035156 256.476562 C 679.15625 256.613281 679.15625 256.757812 679.0625 256.84375 C 678.980469 256.925781 678.832031 256.933594 678.699219 256.816406 L 664.121094 243.078125 L 663.128906 244.066406 L 676.808594 258.707031 C 676.925781 258.839844 676.925781 258.988281 676.835938 259.074219 C 676.753906 259.15625 676.605469 259.164062 676.472656 259.042969 L 661.886719 245.300781 L 660.894531 246.289062 L 674.589844 260.945312 C 674.707031 261.078125 674.707031 261.226562 674.617188 261.308594 C 674.53125 261.394531 674.386719 261.402344 674.253906 261.28125 L 659.652344 247.53125 L 658.660156 248.519531 L 672.359375 263.183594 C 672.480469 263.316406 672.480469 263.460938 672.390625 263.546875 C 672.304688 263.632812 672.160156 263.636719 672.027344 263.519531 L 657.417969 249.753906 L 656.425781 250.742188 L 670.132812 265.417969 C 670.253906 265.550781 670.253906 265.699219 670.160156 265.785156 C 670.078125 265.867188 669.929688 265.875 669.796875 265.757812 L 655.175781 251.984375 L 654.183594 252.972656 L 667.90625 267.65625 C 668.023438 267.789062 668.023438 267.9375 667.933594 268.019531 C 667.851562 268.105469 667.703125 268.113281 667.570312 267.992188 L 652.941406 254.207031 L 651.949219 255.195312 L 665.679688 269.894531 C 665.796875 270.027344 665.796875 270.171875 665.707031 270.257812 C 665.621094 270.34375 665.476562 270.347656 665.34375 270.230469 L 650.699219 256.4375 L 649.710938 257.425781 L 663.449219 272.128906 C 663.570312 272.261719 663.570312 272.410156 663.480469 272.496094 C 663.394531 272.578125 663.25 272.585938 663.117188 272.46875 L 648.464844 258.667969 L 647.472656 259.65625 L 661.222656 274.375 C 661.34375 274.507812 661.34375 274.65625 661.25 274.738281 C 661.167969 274.824219 661.019531 274.832031 660.886719 274.710938 L 646.226562 260.894531 L 645.234375 261.878906 L 658.988281 276.605469 C 659.109375 276.738281 659.109375 276.886719 659.015625 276.96875 C 658.933594 277.054688 658.785156 277.058594 658.652344 276.941406 L 643.984375 263.117188 L 642.992188 264.101562 L 656.761719 278.839844 C 656.878906 278.972656 656.878906 279.121094 656.789062 279.207031 C 656.707031 279.289062 656.558594 279.296875 656.425781 279.179688 L 641.75 265.347656 L 640.765625 266.332031 L 654.539062 281.078125 C 654.660156 281.210938 654.660156 281.359375 654.570312 281.441406 C 654.484375 281.527344 654.339844 281.535156 654.207031 281.414062 L 639.515625 267.570312 L 638.53125 268.554688 L 652.320312 283.316406 C 652.4375 283.449219 652.4375 283.597656 652.347656 283.679688 C 652.265625 283.765625 652.117188 283.769531 651.984375 283.652344 L 637.285156 269.800781 L 636.300781 270.785156 L 650.101562 285.550781 C 650.21875 285.6875 650.21875 285.832031 650.128906 285.917969 C 650.042969 286 649.898438 286.007812 649.765625 285.890625 L 635.050781 272.023438 L 634.066406 273.007812 L 647.871094 287.789062 C 647.992188 287.921875 647.992188 288.070312 647.902344 288.152344 C 647.816406 288.238281 647.671875 288.246094 647.539062 288.125 L 632.816406 274.253906 L 631.832031 275.238281 L 645.652344 290.027344 C 645.769531 290.160156 645.769531 290.308594 645.679688 290.390625 C 645.597656 290.476562 645.449219 290.480469 645.316406 290.363281 L 630.582031 276.476562 L 629.597656 277.460938 L 643.425781 292.261719 C 643.542969 292.398438 643.542969 292.542969 643.453125 292.628906 C 643.367188 292.710938 643.222656 292.71875 643.089844 292.601562 L 628.347656 278.707031 L 627.363281 279.691406 L 641.203125 294.5 C 641.324219 294.632812 641.324219 294.78125 641.230469 294.863281 C 641.148438 294.949219 641 294.957031 640.867188 294.835938 L 626.113281 280.9375 L 625.09375 281.953125 L 638.976562 296.738281 C 639.09375 296.871094 639.09375 297.019531 639.003906 297.101562 C 638.921875 297.1875 638.773438 297.191406 638.640625 297.074219 L 623.773438 285.011719 C 623.601562 284.871094 623.152344 284.542969 622.796875 284.242188 L 580.421875 326.414062 C 579.917969 326.917969 579.519531 326.878906 579.246094 326.605469 C 578.976562 326.332031 578.925781 325.929688 579.433594 325.425781 L 623.257812 281.007812 C 623.417969 280.847656 623.578125 280.6875 623.742188 280.515625 Z M 623.808594 280.425781 "/></g><g clip-rule="nonzero" clip-path="url(#0e726209f6)"><path style=" stroke:none;fill-rule:nonzero;fill:#b1934d;fill-opacity:1;" d="M 660.316406 307.214844 C 660.707031 307.488281 660.796875 308.007812 660.644531 308.421875 C 660.484375 308.847656 660.085938 309.113281 659.679688 309.207031 C 658.835938 309.421875 657.96875 308.898438 657.585938 308.183594 C 657.144531 307.464844 657.195312 306.511719 657.605469 305.8125 C 658.011719 305.082031 658.714844 304.589844 659.472656 304.324219 C 661.042969 303.765625 662.800781 304.464844 663.835938 305.671875 C 664.925781 306.847656 665.34375 308.679688 664.75 310.214844 C 664.21875 311.785156 662.746094 312.894531 661.195312 313.25 C 659.636719 313.628906 657.960938 313.457031 656.515625 312.738281 C 655.078125 312.019531 653.917969 310.683594 653.492188 309.09375 C 653.046875 307.496094 653.410156 305.761719 654.3125 304.394531 C 655.246094 303.027344 656.761719 302.15625 658.324219 301.835938 C 659.890625 301.472656 661.585938 301.703125 663.039062 302.269531 C 664.511719 302.824219 665.851562 303.609375 667.171875 304.339844 C 668.5 305.054688 669.859375 305.789062 671.171875 306.539062 C 673.828125 308.042969 676.453125 309.554688 679.195312 310.804688 C 681.941406 312.054688 684.796875 313.035156 687.742188 313.582031 C 690.683594 314.128906 693.714844 314.234375 696.640625 313.707031 C 699.550781 313.183594 702.378906 312.03125 704.816406 310.339844 C 707.253906 308.671875 709.265625 306.300781 710.101562 303.496094 C 710.925781 300.714844 710.515625 297.5 708.78125 295.179688 C 707.921875 294.023438 706.730469 293.140625 705.367188 292.671875 C 704.007812 292.226562 702.503906 292.144531 701.101562 292.5 C 699.699219 292.839844 698.40625 293.628906 697.484375 294.738281 C 697.023438 295.292969 696.652344 295.925781 696.421875 296.605469 C 696.179688 297.292969 696.03125 297.992188 696.09375 298.707031 C 696.191406 300.117188 696.941406 301.535156 698.203125 302.191406 C 699.433594 302.867188 701.101562 303.054688 702.261719 302.261719 C 702.804688 301.855469 703.195312 301.191406 703.230469 300.503906 C 703.285156 299.808594 702.917969 299.113281 702.253906 298.933594 C 701.644531 298.742188 700.773438 299.042969 700.515625 299.613281 C 700.402344 299.898438 700.515625 300.242188 700.792969 300.410156 C 701.058594 300.628906 701.367188 300.335938 701.214844 300.171875 L 701.199219 300.160156 C 701.144531 300.101562 701.148438 300.011719 701.207031 299.957031 C 701.261719 299.90625 701.347656 299.90625 701.402344 299.957031 C 701.632812 300.171875 701.5625 300.53125 701.339844 300.683594 C 701.121094 300.855469 700.816406 300.796875 700.632812 300.679688 C 700.234375 300.460938 700.027344 299.929688 700.199219 299.492188 C 700.367188 299.058594 700.753906 298.800781 701.121094 298.644531 C 701.492188 298.492188 701.953125 298.433594 702.359375 298.554688 C 702.761719 298.664062 703.15625 298.933594 703.371094 299.304688 C 703.601562 299.667969 703.683594 300.101562 703.671875 300.515625 C 703.636719 301.351562 703.203125 302.144531 702.546875 302.664062 C 701.871094 303.152344 701.03125 303.355469 700.230469 303.328125 C 699.425781 303.300781 698.628906 303.105469 697.917969 302.734375 C 696.421875 301.996094 695.535156 300.375 695.410156 298.769531 C 695.328125 297.957031 695.496094 297.128906 695.753906 296.378906 C 696.003906 295.617188 696.410156 294.898438 696.910156 294.277344 C 697.925781 293.027344 699.347656 292.128906 700.898438 291.730469 C 702.449219 291.308594 704.097656 291.378906 705.632812 291.855469 C 707.164062 292.363281 708.539062 293.34375 709.496094 294.632812 C 711.4375 297.226562 711.882812 300.714844 711.003906 303.765625 C 710.09375 306.84375 707.929688 309.386719 705.375 311.15625 C 702.8125 312.945312 699.878906 314.171875 696.808594 314.710938 C 693.734375 315.257812 690.585938 315.125 687.554688 314.554688 C 684.519531 313.980469 681.585938 312.957031 678.792969 311.679688 C 676 310.398438 673.34375 308.863281 670.707031 307.355469 C 669.378906 306.597656 668.066406 305.875 666.71875 305.136719 C 665.386719 304.394531 664.085938 303.628906 662.710938 303.097656 C 661.34375 302.558594 659.898438 302.347656 658.480469 302.65625 C 657.074219 302.929688 655.757812 303.6875 654.945312 304.84375 C 654.164062 306.007812 653.828125 307.523438 654.199219 308.890625 C 654.554688 310.265625 655.546875 311.449219 656.816406 312.101562 C 658.089844 312.746094 659.625 312.929688 661.019531 312.601562 C 662.417969 312.277344 663.6875 311.351562 664.171875 310.003906 C 664.707031 308.664062 664.378906 307.101562 663.421875 306.007812 C 662.507812 304.90625 660.964844 304.269531 659.589844 304.738281 C 658.917969 304.964844 658.277344 305.390625 657.925781 306 C 657.566406 306.609375 657.515625 307.382812 657.871094 307.992188 C 658.199219 308.609375 658.898438 309.042969 659.574219 308.875 C 659.902344 308.804688 660.210938 308.59375 660.328125 308.292969 C 660.449219 308 660.371094 307.605469 660.121094 307.429688 C 660.058594 307.390625 660.035156 307.296875 660.078125 307.234375 C 660.121094 307.171875 660.210938 307.152344 660.273438 307.191406 Z M 660.316406 307.214844 "/></g><path style=" stroke:none;fill-rule:nonzero;fill:#b1934d;fill-opacity:1;" d="M 661.152344 300.515625 C 661.125 300.363281 661.097656 300.1875 661.175781 300.019531 C 661.246094 299.851562 661.398438 299.730469 661.550781 299.675781 C 661.859375 299.554688 662.199219 299.613281 662.464844 299.808594 C 663.039062 300.25 662.851562 301.105469 662.382812 301.476562 C 661.453125 302.261719 659.828125 301.953125 659.367188 300.75 C 658.996094 299.605469 659.375 298.355469 660.15625 297.523438 C 660.910156 296.644531 661.992188 296.148438 663.074219 295.925781 C 665.265625 295.476562 667.480469 295.769531 669.601562 296.210938 C 671.746094 296.644531 673.785156 297.496094 675.761719 298.34375 C 677.738281 299.199219 679.75 299.929688 681.851562 300.273438 C 683.945312 300.621094 686.09375 300.664062 688.164062 300.242188 C 690.214844 299.816406 692.191406 298.875 693.6875 297.4375 C 695.160156 295.980469 696.082031 293.972656 696.3125 291.898438 C 696.429688 290.859375 696.375 289.800781 696.121094 288.792969 C 696.039062 288.273438 695.800781 287.804688 695.65625 287.304688 C 695.402344 286.851562 695.214844 286.351562 694.90625 285.929688 C 693.761719 284.191406 692.109375 282.746094 690.167969 281.941406 C 688.246094 281.128906 686.066406 280.804688 684.042969 281.34375 C 682.03125 281.855469 680.179688 283.097656 679.035156 284.859375 C 677.878906 286.605469 677.480469 288.828125 678.074219 290.847656 C 678.601562 292.867188 680.113281 294.640625 682.121094 295.207031 C 683.105469 295.503906 684.195312 295.503906 685.1875 295.222656 C 685.683594 295.082031 686.152344 294.851562 686.5 294.5 C 686.855469 294.148438 687.109375 293.695312 687.039062 293.21875 C 686.933594 292.269531 686.046875 291.289062 685.105469 291.28125 C 684.671875 291.289062 684.203125 291.738281 684.21875 292.164062 C 684.222656 292.390625 684.335938 292.621094 684.519531 292.707031 C 684.679688 292.816406 684.949219 292.664062 684.902344 292.570312 C 684.867188 292.5 684.894531 292.410156 684.972656 292.375 C 685.042969 292.339844 685.132812 292.367188 685.167969 292.445312 C 685.175781 292.453125 685.175781 292.464844 685.175781 292.472656 L 685.179688 292.5 C 685.238281 292.738281 685.054688 292.929688 684.902344 292.984375 C 684.746094 293.0625 684.539062 293.046875 684.390625 292.972656 C 684.070312 292.816406 683.925781 292.488281 683.910156 292.179688 C 683.910156 291.507812 684.460938 291.007812 685.082031 290.945312 C 685.710938 290.910156 686.242188 291.261719 686.648438 291.652344 C 687.050781 292.058594 687.351562 292.585938 687.421875 293.183594 C 687.511719 293.800781 687.199219 294.402344 686.792969 294.800781 C 686.382812 295.222656 685.851562 295.488281 685.3125 295.652344 C 684.230469 295.964844 683.078125 295.988281 681.988281 295.683594 C 679.777344 295.101562 678.136719 293.148438 677.554688 291 C 676.90625 288.847656 677.320312 286.414062 678.554688 284.554688 C 679.769531 282.671875 681.738281 281.332031 683.890625 280.769531 C 686.054688 280.179688 688.378906 280.511719 690.410156 281.359375 C 692.472656 282.199219 694.230469 283.714844 695.460938 285.566406 C 695.789062 286.023438 695.996094 286.546875 696.261719 287.039062 C 696.429688 287.570312 696.679688 288.082031 696.777344 288.636719 C 697.058594 289.730469 697.121094 290.867188 697.003906 291.984375 C 696.773438 294.210938 695.800781 296.378906 694.175781 297.949219 C 692.539062 299.507812 690.453125 300.46875 688.289062 300.910156 C 683.925781 301.757812 679.433594 300.707031 675.523438 298.890625 C 673.539062 298.027344 671.578125 297.191406 669.476562 296.75 C 667.402344 296.300781 665.230469 296.015625 663.171875 296.421875 C 662.152344 296.632812 661.167969 297.058594 660.484375 297.832031 C 659.769531 298.539062 659.4375 299.675781 659.730469 300.601562 C 660.03125 301.527344 661.410156 301.828125 662.144531 301.210938 C 662.507812 300.929688 662.621094 300.3125 662.265625 300.054688 C 661.921875 299.765625 661.246094 299.949219 661.417969 300.433594 C 661.445312 300.511719 661.40625 300.585938 661.335938 300.617188 C 661.257812 300.644531 661.179688 300.601562 661.152344 300.53125 C 661.152344 300.523438 661.148438 300.511719 661.148438 300.503906 Z M 661.152344 300.515625 "/><path style=" stroke:none;fill-rule:nonzero;fill:#b1934d;fill-opacity:1;" d="M 644.277344 302.152344 C 645.113281 301.21875 646.050781 300.375 647.105469 299.683594 C 648.164062 299.007812 649.3125 298.46875 650.511719 298.078125 C 652.921875 297.320312 655.484375 297.1875 657.976562 297.417969 C 660.46875 297.675781 662.941406 298.222656 665.273438 299.171875 C 667.605469 300.101562 669.792969 301.34375 671.921875 302.605469 C 676.160156 305.160156 680.398438 307.710938 685.109375 309.066406 C 689.742188 310.511719 694.902344 310.707031 699.398438 308.617188 C 699.46875 308.582031 699.550781 308.617188 699.585938 308.6875 C 699.621094 308.757812 699.585938 308.839844 699.523438 308.875 C 697.308594 310.03125 694.832031 310.691406 692.316406 310.8125 C 689.804688 310.9375 687.289062 310.539062 684.875 309.871094 C 680.035156 308.519531 675.636719 305.980469 671.453125 303.378906 C 669.34375 302.101562 667.207031 300.875 664.945312 299.957031 C 662.695312 299.039062 660.300781 298.441406 657.886719 298.148438 C 655.46875 297.859375 652.996094 297.972656 650.652344 298.609375 C 649.484375 298.945312 648.363281 299.421875 647.308594 300.039062 C 646.265625 300.679688 645.324219 301.464844 644.472656 302.347656 L 644.464844 302.355469 C 644.410156 302.410156 644.320312 302.410156 644.261719 302.355469 C 644.207031 302.296875 644.207031 302.214844 644.253906 302.15625 Z M 644.277344 302.152344 "/><path style=" stroke:none;fill-rule:nonzero;fill:#b1934d;fill-opacity:1;" d="M 569.8125 307.453125 C 569.5625 307.628906 569.492188 308.011719 569.605469 308.316406 C 569.722656 308.609375 570.03125 308.820312 570.359375 308.898438 C 571.035156 309.058594 571.734375 308.628906 572.0625 308.011719 C 572.417969 307.394531 572.371094 306.625 572.007812 306.023438 C 571.65625 305.410156 571.023438 304.984375 570.34375 304.757812 C 568.976562 304.296875 567.425781 304.929688 566.511719 306.027344 C 565.554688 307.121094 565.226562 308.6875 565.761719 310.027344 C 566.253906 311.378906 567.523438 312.304688 568.914062 312.621094 C 570.316406 312.949219 571.84375 312.773438 573.117188 312.121094 C 574.386719 311.472656 575.386719 310.285156 575.734375 308.910156 C 576.113281 307.542969 575.777344 306.027344 574.988281 304.863281 C 574.179688 303.707031 572.863281 302.949219 571.453125 302.675781 C 570.03125 302.367188 568.589844 302.578125 567.222656 303.117188 C 565.847656 303.652344 564.546875 304.417969 563.214844 305.160156 C 561.867188 305.894531 560.546875 306.609375 559.226562 307.375 C 556.589844 308.875 553.933594 310.417969 551.140625 311.703125 C 548.347656 312.976562 545.417969 314.003906 542.378906 314.578125 C 539.347656 315.152344 536.199219 315.277344 533.125 314.730469 C 530.054688 314.191406 527.121094 312.964844 524.558594 311.175781 C 522.003906 309.410156 519.832031 306.863281 518.929688 303.785156 C 518.050781 300.726562 518.5 297.25 520.4375 294.65625 C 521.402344 293.355469 522.777344 292.382812 524.300781 291.878906 C 525.835938 291.402344 527.484375 291.332031 529.035156 291.75 C 530.585938 292.144531 532.007812 293.042969 533.023438 294.296875 C 533.53125 294.921875 533.929688 295.636719 534.179688 296.402344 C 534.441406 297.152344 534.605469 297.980469 534.523438 298.792969 C 534.398438 300.40625 533.511719 302.019531 532.015625 302.753906 C 531.296875 303.132812 530.507812 303.328125 529.707031 303.351562 C 528.902344 303.386719 528.0625 303.183594 527.386719 302.683594 C 526.730469 302.164062 526.296875 301.378906 526.261719 300.539062 C 526.253906 300.125 526.332031 299.691406 526.5625 299.324219 C 526.78125 298.945312 527.171875 298.6875 527.574219 298.574219 C 527.980469 298.457031 528.441406 298.511719 528.8125 298.664062 C 529.1875 298.820312 529.566406 299.074219 529.734375 299.515625 C 529.90625 299.949219 529.699219 300.480469 529.300781 300.699219 C 529.117188 300.820312 528.8125 300.875 528.59375 300.707031 C 528.371094 300.550781 528.300781 300.195312 528.53125 299.976562 C 528.589844 299.921875 528.679688 299.929688 528.734375 299.984375 C 528.785156 300.039062 528.785156 300.125 528.734375 300.179688 L 528.71875 300.195312 C 528.566406 300.363281 528.875 300.648438 529.140625 300.433594 C 529.417969 300.273438 529.53125 299.921875 529.417969 299.632812 C 529.167969 299.066406 528.292969 298.765625 527.679688 298.953125 C 527.011719 299.136719 526.640625 299.828125 526.703125 300.523438 C 526.746094 301.21875 527.136719 301.878906 527.671875 302.285156 C 528.832031 303.082031 530.496094 302.886719 531.730469 302.214844 C 532.992188 301.554688 533.742188 300.136719 533.839844 298.730469 C 533.902344 298.011719 533.75 297.3125 533.511719 296.625 C 533.273438 295.9375 532.910156 295.308594 532.449219 294.761719 C 531.527344 293.652344 530.242188 292.859375 528.832031 292.523438 C 527.429688 292.15625 525.933594 292.242188 524.566406 292.691406 C 523.203125 293.160156 522.015625 294.042969 521.152344 295.203125 C 519.417969 297.523438 519.007812 300.734375 519.832031 303.519531 C 520.667969 306.324219 522.679688 308.695312 525.117188 310.363281 C 527.554688 312.054688 530.382812 313.203125 533.292969 313.730469 C 536.21875 314.253906 539.25 314.148438 542.191406 313.601562 C 545.136719 313.054688 548 312.066406 550.738281 310.824219 C 553.480469 309.578125 556.113281 308.0625 558.761719 306.5625 C 560.078125 305.8125 561.441406 305.074219 562.761719 304.359375 C 564.085938 303.628906 565.421875 302.84375 566.894531 302.292969 C 568.355469 301.722656 570.042969 301.492188 571.609375 301.855469 C 573.171875 302.179688 574.6875 303.046875 575.625 304.417969 C 576.523438 305.777344 576.886719 307.515625 576.441406 309.113281 C 576.015625 310.707031 574.855469 312.039062 573.417969 312.761719 C 571.964844 313.476562 570.296875 313.652344 568.730469 313.273438 C 567.179688 312.914062 565.707031 311.808594 565.175781 310.238281 C 564.582031 308.699219 565.007812 306.871094 566.09375 305.691406 C 567.125 304.484375 568.886719 303.785156 570.457031 304.347656 C 571.210938 304.613281 571.914062 305.101562 572.328125 305.832031 C 572.746094 306.535156 572.789062 307.496094 572.347656 308.203125 C 571.964844 308.917969 571.097656 309.445312 570.253906 309.226562 C 569.847656 309.128906 569.449219 308.867188 569.289062 308.441406 C 569.144531 308.035156 569.226562 307.507812 569.617188 307.234375 C 569.679688 307.191406 569.773438 307.207031 569.820312 307.269531 C 569.863281 307.332031 569.847656 307.425781 569.785156 307.472656 Z M 569.8125 307.453125 "/><path style=" stroke:none;fill-rule:nonzero;fill:#b1934d;fill-opacity:1;" d="M 568.535156 300.441406 C 568.710938 299.957031 568.03125 299.773438 567.691406 300.0625 C 567.335938 300.320312 567.445312 300.9375 567.808594 301.21875 C 568.550781 301.835938 569.933594 301.535156 570.226562 300.609375 C 570.511719 299.675781 570.183594 298.539062 569.472656 297.839844 C 568.792969 297.066406 567.800781 296.640625 566.78125 296.429688 C 564.722656 296.015625 562.550781 296.300781 560.476562 296.757812 C 558.375 297.191406 556.414062 298.027344 554.429688 298.898438 C 550.519531 300.707031 546.03125 301.757812 541.667969 300.917969 C 539.5 300.476562 537.414062 299.515625 535.78125 297.957031 C 534.160156 296.386719 533.183594 294.210938 532.953125 291.988281 C 532.832031 290.875 532.894531 289.738281 533.175781 288.644531 C 533.273438 288.089844 533.523438 287.578125 533.691406 287.046875 C 533.964844 286.554688 534.167969 286.027344 534.496094 285.574219 C 535.730469 283.714844 537.492188 282.207031 539.542969 281.367188 C 541.574219 280.515625 543.902344 280.179688 546.066406 280.777344 C 548.214844 281.335938 550.183594 282.675781 551.398438 284.5625 C 552.636719 286.429688 553.046875 288.855469 552.398438 291.007812 C 551.820312 293.152344 550.179688 295.109375 547.964844 295.691406 C 546.875 296 545.722656 295.972656 544.640625 295.65625 C 544.101562 295.496094 543.574219 295.230469 543.160156 294.808594 C 542.753906 294.410156 542.441406 293.8125 542.53125 293.1875 C 542.609375 292.59375 542.902344 292.058594 543.308594 291.660156 C 543.710938 291.265625 544.242188 290.925781 544.871094 290.953125 C 545.492188 291.015625 546.042969 291.511719 546.042969 292.1875 C 546.023438 292.496094 545.878906 292.832031 545.5625 292.980469 C 545.417969 293.054688 545.207031 293.070312 545.054688 292.992188 C 544.898438 292.9375 544.71875 292.746094 544.773438 292.507812 L 544.78125 292.480469 C 544.800781 292.402344 544.878906 292.355469 544.957031 292.375 C 545.03125 292.398438 545.082031 292.472656 545.058594 292.550781 C 545.058594 292.558594 545.054688 292.570312 545.046875 292.578125 C 545.003906 292.671875 545.277344 292.824219 545.429688 292.710938 C 545.613281 292.628906 545.722656 292.398438 545.730469 292.171875 C 545.746094 291.746094 545.285156 291.296875 544.84375 291.289062 C 543.902344 291.300781 543.007812 292.285156 542.910156 293.222656 C 542.839844 293.699219 543.089844 294.164062 543.445312 294.507812 C 543.796875 294.859375 544.269531 295.089844 544.761719 295.230469 C 545.75 295.503906 546.839844 295.511719 547.824219 295.214844 C 549.835938 294.648438 551.34375 292.875 551.882812 290.855469 C 552.476562 288.828125 552.085938 286.605469 550.917969 284.863281 C 549.773438 283.105469 547.921875 281.863281 545.910156 281.351562 C 543.886719 280.804688 541.707031 281.128906 539.789062 281.949219 C 537.847656 282.753906 536.191406 284.191406 535.046875 285.9375 C 534.738281 286.367188 534.550781 286.855469 534.300781 287.3125 C 534.144531 287.808594 533.910156 288.289062 533.832031 288.800781 C 533.582031 289.808594 533.523438 290.867188 533.644531 291.90625 C 533.875 293.980469 534.789062 295.988281 536.269531 297.445312 C 537.761719 298.890625 539.738281 299.824219 541.792969 300.25 C 543.859375 300.671875 546.015625 300.628906 548.105469 300.277344 C 550.207031 299.933594 552.21875 299.207031 554.195312 298.351562 C 556.164062 297.5 558.207031 296.652344 560.351562 296.21875 C 562.476562 295.769531 564.6875 295.480469 566.882812 295.929688 C 567.964844 296.15625 569.050781 296.652344 569.800781 297.53125 C 570.582031 298.363281 570.957031 299.613281 570.589844 300.753906 C 570.128906 301.960938 568.5 302.261719 567.570312 301.484375 C 567.105469 301.113281 566.914062 300.25 567.488281 299.816406 C 567.753906 299.621094 568.097656 299.570312 568.402344 299.683594 C 568.558594 299.738281 568.703125 299.859375 568.78125 300.027344 C 568.855469 300.195312 568.835938 300.371094 568.800781 300.523438 C 568.789062 300.601562 568.710938 300.65625 568.632812 300.644531 C 568.558594 300.628906 568.5 300.550781 568.515625 300.476562 C 568.515625 300.46875 568.523438 300.453125 568.523438 300.453125 Z M 568.535156 300.441406 "/><path style=" stroke:none;fill-rule:nonzero;fill:#b1934d;fill-opacity:1;" d="M 585.476562 302.339844 C 584.625 301.457031 583.679688 300.671875 582.640625 300.035156 C 581.585938 299.417969 580.460938 298.9375 579.296875 298.601562 C 576.949219 297.964844 574.484375 297.851562 572.0625 298.140625 C 569.644531 298.433594 567.257812 299.039062 565.003906 299.949219 C 562.738281 300.867188 560.609375 302.09375 558.496094 303.371094 C 554.3125 305.972656 549.921875 308.519531 545.074219 309.863281 C 542.664062 310.53125 540.152344 310.929688 537.628906 310.804688 C 535.117188 310.683594 532.636719 310.027344 530.425781 308.867188 C 530.355469 308.835938 530.328125 308.742188 530.363281 308.671875 C 530.398438 308.601562 530.480469 308.574219 530.550781 308.609375 C 535.046875 310.691406 540.207031 310.503906 544.835938 309.058594 C 549.558594 307.699219 553.796875 305.152344 558.027344 302.601562 C 560.15625 301.332031 562.34375 300.097656 564.675781 299.164062 C 567.007812 298.21875 569.476562 297.671875 571.972656 297.410156 C 574.464844 297.179688 577.027344 297.3125 579.4375 298.070312 C 580.636719 298.460938 581.78125 299.003906 582.84375 299.675781 C 583.890625 300.371094 584.832031 301.21875 585.671875 302.144531 C 585.726562 302.199219 585.71875 302.292969 585.664062 302.347656 C 585.609375 302.394531 585.515625 302.394531 585.46875 302.339844 L 585.460938 302.332031 Z M 585.476562 302.339844 "/><path style=" stroke:none;fill-rule:nonzero;fill:#b1934d;fill-opacity:1;" d="M 620.835938 241.890625 C 620.355469 241.113281 619.238281 240.75 618.460938 241.226562 C 617.34375 241.914062 617.203125 243.882812 617.625 244.992188 C 617.46875 244.886719 617.308594 244.796875 617.128906 244.730469 C 616.757812 244.613281 616.347656 244.675781 616.003906 244.867188 C 615.660156 245.054688 615.390625 245.347656 615.1875 245.679688 C 615.355469 245.414062 615.304688 244.835938 615.460938 244.515625 C 615.800781 243.765625 616.519531 243.230469 616.792969 242.453125 C 617.066406 241.652344 617.199219 240.8125 617.203125 239.96875 C 617.210938 239.113281 617.09375 238.257812 616.863281 237.4375 C 616.632812 236.617188 616.289062 235.828125 615.851562 235.097656 C 615.648438 234.765625 615.429688 234.457031 615.195312 234.15625 C 615.035156 233.960938 614.867188 233.765625 614.683594 233.589844 C 614.503906 233.773438 614.335938 233.96875 614.175781 234.15625 C 613.9375 234.453125 613.714844 234.765625 613.519531 235.097656 C 613.070312 235.828125 612.734375 236.617188 612.503906 237.4375 C 612.273438 238.257812 612.15625 239.113281 612.164062 239.96875 C 612.171875 240.8125 612.304688 241.652344 612.574219 242.453125 C 612.847656 243.230469 613.558594 243.765625 613.910156 244.515625 C 614.0625 244.84375 614.015625 245.414062 614.179688 245.679688 C 613.980469 245.347656 613.707031 245.046875 613.363281 244.867188 C 613.023438 244.675781 612.609375 244.613281 612.238281 244.730469 C 612.066406 244.789062 611.90625 244.886719 611.746094 244.992188 C 612.164062 243.882812 612.015625 241.914062 610.90625 241.226562 C 610.125 240.75 609.015625 241.113281 608.53125 241.890625 C 608.050781 242.671875 608.132812 243.714844 608.59375 244.507812 C 609.097656 245.382812 609.867188 245.820312 610.675781 246.203125 C 611.144531 246.429688 611.632812 246.640625 612.09375 246.914062 C 613.113281 247.507812 614.273438 248.519531 613.8125 249.84375 C 613.65625 250.292969 613.308594 250.636719 612.929688 250.925781 C 612.367188 251.359375 611.714844 251.714844 611.25 252.25 C 610.886719 252.664062 610.597656 253.167969 610.523438 253.714844 C 610.488281 253.96875 610.535156 254.285156 610.773438 254.367188 C 610.878906 254.402344 610.992188 254.382812 611.09375 254.351562 C 611.648438 254.199219 612.101562 253.804688 612.46875 253.371094 C 612.839844 252.9375 613.140625 252.445312 613.496094 251.996094 C 613.035156 252.585938 612.8125 253.316406 612.867188 254.058594 C 612.929688 254.894531 613.40625 255.363281 613.9375 255.972656 C 614.25 256.339844 614.507812 256.757812 614.707031 257.207031 C 614.902344 256.757812 615.152344 256.339844 615.472656 255.972656 C 616.003906 255.363281 616.480469 254.902344 616.542969 254.058594 C 616.597656 253.316406 616.375 252.585938 615.914062 251.996094 C 616.269531 252.445312 616.570312 252.9375 616.941406 253.371094 C 617.308594 253.804688 617.761719 254.191406 618.316406 254.351562 C 618.417969 254.382812 618.53125 254.402344 618.636719 254.367188 C 618.875 254.285156 618.921875 253.96875 618.886719 253.714844 C 618.8125 253.167969 618.523438 252.664062 618.160156 252.25 C 617.6875 251.710938 617.042969 251.351562 616.480469 250.925781 C 616.109375 250.636719 615.753906 250.292969 615.597656 249.84375 C 615.144531 248.519531 616.296875 247.515625 617.316406 246.914062 C 617.777344 246.640625 618.265625 246.429688 618.734375 246.203125 C 619.550781 245.8125 620.3125 245.378906 620.816406 244.507812 C 621.269531 243.714844 621.359375 242.671875 620.878906 241.890625 Z M 620.835938 241.890625 "/></g></svg>